<?xml version="1.0" encoding="UTF-8" standalone="no"?>
<!-- Generator: Adobe Illustrator 15.1.0, SVG Export Plug-In . SVG Version: 6.00 Build 0)  -->

<svg
   xmlns:dc="http://purl.org/dc/elements/1.1/"
   xmlns:cc="http://creativecommons.org/ns#"
   xmlns:rdf="http://www.w3.org/1999/02/22-rdf-syntax-ns#"
   xmlns:svg="http://www.w3.org/2000/svg"
   xmlns="http://www.w3.org/2000/svg"
   xmlns:xlink="http://www.w3.org/1999/xlink"
   xmlns:sodipodi="http://sodipodi.sourceforge.net/DTD/sodipodi-0.dtd"
   xmlns:inkscape="http://www.inkscape.org/namespaces/inkscape"
   version="1.1"
   id="Top_Layer"
   x="0px"
   y="0px"
   width="140.5px"
   height="121px"
   viewBox="0 0 140.5 121"
   enable-background="new 0 0 140.5 121"
   xml:space="preserve"
   inkscape:version="0.48.3.1 r9886"
   sodipodi:docname="obspy_logo_only_waveform_lightgray.svg"><metadata
   id="metadata3769"><rdf:RDF><cc:Work
       rdf:about=""><dc:format>image/svg+xml</dc:format><dc:type
         rdf:resource="http://purl.org/dc/dcmitype/StillImage" /><dc:title /></cc:Work></rdf:RDF></metadata><defs
   id="defs3767"><linearGradient
     inkscape:collect="always"
     id="linearGradient3771"><stop
       style="stop-color:#000000;stop-opacity:1;"
       offset="0"
       id="stop3773" /><stop
       style="stop-color:#000000;stop-opacity:0;"
       offset="1"
       id="stop3775" /></linearGradient><linearGradient
     inkscape:collect="always"
     xlink:href="#linearGradient3771"
     id="linearGradient3779"
     x1="1.2629989"
     y1="60.889999"
     x2="138.797"
     y2="60.889999"
     gradientUnits="userSpaceOnUse" /></defs><sodipodi:namedview
   pagecolor="#ffffff"
   bordercolor="#666666"
   borderopacity="1"
   objecttolerance="10"
   gridtolerance="10"
   guidetolerance="10"
   inkscape:pageopacity="0"
   inkscape:pageshadow="2"
   inkscape:window-width="1294"
   inkscape:window-height="771"
   id="namedview3765"
   showgrid="false"
   inkscape:zoom="2.7583008"
   inkscape:cx="11.342552"
   inkscape:cy="28.15719"
   inkscape:window-x="0"
   inkscape:window-y="27"
   inkscape:window-maximized="0"
   inkscape:current-layer="g3759" />
<g
   id="g3759"
   style="fill:#999999;fill-opacity:1;stroke:#999999;stroke-opacity:1;stroke-width:2.2;stroke-miterlimit:10;stroke-dasharray:none;opacity:1">
	<g
   id="g3761"
   style="fill:#cccccc;fill-opacity:1;stroke:#cccccc;stroke-opacity:1;stroke-width:2.20000000000000018;stroke-miterlimit:10;stroke-dasharray:none">
		<path
   stroke="#000000"
   stroke-width="2.2"
   stroke-miterlimit="10"
   d="M137.613,60.63l-0.238-0.26l-2.605,2.941l-2.712,0.011    l-0.02-1.431l-5.805-3.229l0.028,3.284c0,0-23.312-0.476-25.34-0.536c-0.503-0.017-1.043,0.024-2.162-0.253    c-3.958-0.938-7.769-15.9-7.769-15.9l-6.712,30.867l-8.265-65.177l-7.675,72.271l-7.551-63.015l-7.551,54.21l-7.55-36.471    c0,0-6.042,19.921-6.833,21.426c-0.199,0.375-0.406,0.733-0.629,1.066c-0.112,0.165-0.228,0.333-0.349,0.478    c-0.097,0.118-0.161,0.187-0.242,0.271c-0.077,0.08-0.153,0.15-0.226,0.212c-0.049,0.04-0.023,0.025-0.107,0.087    c-0.027,0.022-0.084,0.059-0.125,0.088c-0.183,0.123-0.387,0.238-0.606,0.344c-0.677,0.332-1.673,0.657-2.875,0.906    c-1.202,0.252-2.604,0.438-4.107,0.561c-3.008,0.245-6.412,0.241-9.582,0.128c-6.349-0.23-17.646-0.053-17.642-0.047l17.537,2.128    c3.178,0.424,6.615,0.75,9.768,0.762c3.146,0.015,6.029-0.3,8.005-1.153c0.317-0.135,0.637-0.292,0.955-0.484    c0.323-0.194,0.662-0.457,0.929-0.711c0.134-0.124,0.276-0.272,0.383-0.387c0.089-0.095,0.167-0.186,0.248-0.283    c0.159-0.192,0.307-0.393,0.449-0.599c0.563-0.827,1.021-1.732,1.438-2.662c0.828-1.867,2.771-6.786,2.771-6.786    c0.002,0,8.39,44.518,8.39,44.518l7.551-47.188l7.551,60.216l8.095-67.112l7.006,53.037l8.39-38.766    c0.002-0.016,1.101,4.307,3.724,6.152c0.237,0.177,0.993,0.59,1.644,0.8c0.337,0.109,0.679,0.199,1.024,0.259    c0.441,0.071,0.694,0.075,0.989,0.095c0.565,0.029,1.094,0.042,1.62,0.055c2.09,0.04,25.46-0.123,25.46-0.123l0.029,3.284    l5.753-3.34l-0.004-1.451l2.713-0.013l2.697,3.13l0.219-0.263l-2.606-3.079L137.613,60.63z"
   id="path3763"
   style="fill:#cccccc;fill-opacity:1;stroke:#cccccc;stroke-opacity:1;stroke-width:2.20000000000000018;stroke-miterlimit:10;stroke-dasharray:none" />
	</g>
</g>
</svg>